<?xml version="1.0" encoding="UTF-8"?>
<svg width="24px" height="24px" viewBox="0 0 24 24" version="1.1" xmlns="http://www.w3.org/2000/svg" xmlns:xlink="http://www.w3.org/1999/xlink">
    <title>编组@3x</title>
    <defs>
        <path d="M9.87348697,0.153910997 L9.90554816,0.184171649 L14.8552956,5.13391912 C15.5244753,5.80309876 15.5384165,6.87939136 14.8971194,7.56553404 L14.8552956,7.60879285 L9.90554816,12.5585403 C9.77667514,12.6874133 9.6125707,12.7595822 9.44423848,12.775047 L9.39824817,12.7778588 L9.35218798,12.7778588 C9.16799379,12.7722352 8.98547673,12.6991291 8.84488799,12.5585403 C8.56245524,12.2761076 8.55236836,11.8244608 8.81462734,11.5299413 L8.84488799,11.4978801 L13.4410821,6.90168607 C13.7235148,6.61925332 13.7336017,6.16760655 13.4713427,5.87308709 L13.4410821,5.8410259 L8.84488799,1.24483182 C8.55199477,0.951938601 8.55199477,0.477064867 8.84488799,0.184171649 C8.98610436,0.0429552751 9.16962424,-0.0301746325 9.35465496,-0.0352180744 L9.40092051,-0.0350604668 C9.57050315,-0.029281523 9.73849888,0.033708965 9.87348697,0.153910997 Z" id="path-1"></path>
    </defs>
    <g id="2.6" stroke="none" stroke-width="1" fill="none" fill-rule="evenodd">
        <g id="切图资源" transform="translate(-1613.000000, -944.000000)">
            <g id="编组" transform="translate(1613.000000, 944.000000)">
                <rect id="矩形" x="0" y="0" width="24" height="24"></rect>
                <g id="play/ic_arrow_down_24" transform="translate(0.000000, 6.000000)">
                    <rect id="矩形" fill="#D8D8D8" opacity="0" x="0" y="0" width="24" height="12"></rect>
                    <mask id="mask-2" fill="white">
                        <use xlink:href="#path-1" transform="translate(11.996538, 6.371320) scale(1, -1) rotate(-90.000000) translate(-11.996538, -6.371320) "></use>
                    </mask>
                    <use id="路径" fill="#FFFFFF" fill-opacity="0.6" fill-rule="nonzero" transform="translate(11.996538, 6.371320) scale(1, -1) rotate(-90.000000) translate(-11.996538, -6.371320) " xlink:href="#path-1"></use>
                </g>
            </g>
        </g>
    </g>
</svg>