<?xml version="1.0" encoding="UTF-8"?>
<svg width="24px" height="24px" viewBox="0 0 24 24" version="1.1" xmlns="http://www.w3.org/2000/svg" xmlns:xlink="http://www.w3.org/1999/xlink">
    <title>play/ic_stream_cast_24</title>
    <g id="play/ic_stream_cast_24" stroke="none" stroke-width="1" fill="none" fill-rule="evenodd">
        <rect id="矩形" fill="#D8D8D8" opacity="0" x="0" y="0" width="24" height="24"></rect>
        <path d="M12.025,17.025 C14.325,17.025 16.225,18.925 16.225,21.225 C16.225,21.625 15.925,22.025 15.425,22.025 L8.425,22.025 C8.05576923,22.025 7.68653846,21.7693787 7.63191853,21.3367888 L7.625,21.225 C7.825,18.925 9.725,17.025 12.025,17.025 Z M19.825,5.225 C24.125,9.525 24.125,16.525 19.825,20.825 C19.525,21.125 19.025,21.125 18.725,20.825 C18.425,20.525 18.425,20.025 18.725,19.725 C22.425,16.025 22.425,10.025 18.725,6.325 C15.025,2.625 9.025,2.625 5.325,6.325 C1.625,10.025 1.625,16.025 5.325,19.725 C5.625,20.025 5.625,20.525 5.325,20.825 C5.025,21.125 4.525,21.125 4.225,20.825 C-0.075,16.525 -0.075,9.525 4.225,5.225 C8.525,0.925 15.525,0.925 19.825,5.225 Z M17.525,7.525 C20.625,10.525 20.525,15.425 17.525,18.525 C17.225,18.825 16.725,18.825 16.425,18.525 C16.125,18.225 16.125,17.725 16.425,17.425 C18.825,15.025 18.825,11.025 16.425,8.625 C14.025,6.125 10.025,6.125 7.625,8.625 C5.225,11.125 5.225,15.025 7.625,17.425 C7.925,17.725 7.925,18.225 7.625,18.525 C7.325,18.825 6.825,18.825 6.525,18.525 C3.525,15.525 3.525,10.525 6.525,7.525 C9.525,4.525 14.425,4.525 17.525,7.525 Z M12.025,9.025 C14.125,9.025 15.825,10.725 15.825,12.825 C15.825,14.925 14.125,16.625 12.025,16.625 C9.925,16.625 8.225,14.925 8.225,12.825 C8.225,10.725 9.925,9.025 12.025,9.025 Z M12.025,10.525 C10.825,10.525 9.825,11.525 9.825,12.725 C9.825,13.925 10.825,14.925 12.025,14.925 C13.225,14.925 14.225,13.925 14.225,12.725 C14.225,11.525 13.225,10.525 12.025,10.525 Z" id="形状结合" fill="#FFFFFF" fill-opacity="0.6" fill-rule="nonzero"></path>
    </g>
</svg>