<?xml version="1.0" encoding="UTF-8"?>
<svg width="22.75px" height="22.75px" viewBox="0 0 22.75 22.75" version="1.1" xmlns="http://www.w3.org/2000/svg" xmlns:xlink="http://www.w3.org/1999/xlink">
    <title>编组备份</title>
    <g id="2.6" stroke="none" stroke-width="1" fill="none" fill-rule="evenodd">
        <g id="编组备份" transform="translate(-2.625000, -2.625000)">
            <rect id="矩形" x="0" y="0" width="28" height="28"></rect>
            <path d="M21,24.5 L7,24.5 C5.06700338,24.5 3.5,22.9329966 3.5,21 L3.5,7 C3.5,5.06700338 5.06700338,3.5 7,3.5 L21,3.5 C22.9329966,3.5 24.5,5.06700338 24.5,7 L24.5,21 C24.5,22.9329966 22.9329966,24.5 21,24.5 Z" id="路径" stroke="#000000" stroke-width="1.75" stroke-linecap="round" stroke-linejoin="round"></path>
            <path d="M11.6990234,10.4267187 C11.0854297,9.5965625 10.4537891,8.76640625 9.80410156,7.93625 L8.77542969,8.64007812 C9.42511719,9.47023437 10.0387109,10.3003906 10.6162109,11.1305469 L11.6990234,10.4267187 Z M18.0876172,20.06375 C18.7801774,20.06375 19.2086663,19.9429322 19.4411328,19.7389062 C19.6216016,19.5945312 19.7479297,19.4140625 19.8201172,19.1975 C19.8923047,18.90875 19.9283984,18.62 19.9283984,18.33125 L19.9283984,8.64007812 L12.2945703,8.64007812 L12.2945703,9.83117187 L18.6831641,9.83117187 L18.6831641,17.9522656 C18.6831641,18.1860784 18.6831641,18.5373103 18.4666016,18.7102344 C18.2726235,18.8726562 17.8891016,18.8726562 17.7086328,18.8726562 L16.0844141,18.8726562 L16.3551172,20.06375 L18.0876172,20.06375 Z M18.1417578,12.4299219 L18.1417578,11.2929687 L11.9155859,11.2929687 L11.9155859,12.4299219 L18.1417578,12.4299219 Z M10.0206641,19.9013281 C10.1650391,19.7208594 11.6629297,18.4214844 12.2404297,17.9522656 L11.8073047,16.8153125 L10.7786328,17.6274219 L10.7786328,12.1592188 L8.07160156,12.1592188 L8.07160156,13.4585938 L9.53339844,13.4585938 L9.53339844,17.898125 C9.53339844,18.532758 9.31683594,18.8907031 9.20855469,19.0350781 L10.0206641,19.9013281 Z M17.2213672,18.1146875 L17.2213672,13.7834375 L12.4569922,13.7834375 L12.4569922,18.1146875 L17.2213672,18.1146875 Z M16.0844141,16.9777344 L13.6480859,16.9777344 L13.6480859,14.9203906 L16.0844141,14.9203906 L16.0844141,16.9777344 Z" id="词" stroke="#000000" stroke-width="0.5" fill="#000000" fill-rule="nonzero"></path>
        </g>
    </g>
</svg>