<?xml version="1.0" encoding="UTF-8"?>
<svg width="32px" height="24px" viewBox="0 0 32 24" version="1.1" xmlns="http://www.w3.org/2000/svg" xmlns:xlink="http://www.w3.org/1999/xlink">
    <title>play/ic_favourite_num_24@3x</title>
    <g id="2.6" stroke="none" stroke-width="1" fill="none" fill-rule="evenodd">
        <g id="#illustration_切图资源" transform="translate(-961.000000, -1032.000000)">
            <g id="play/ic_favourite_num_24" transform="translate(961.000000, 1032.000000)">
                <rect id="矩形" fill="#D8D8D8" opacity="0" x="0" y="0" width="24" height="24"></rect>
                <path d="M3.13283323,4.79567628 C5.65837386,2.20675244 9.70323504,2.04882087 12.4094597,4.4072243 C12.4465231,4.43984353 12.4465231,4.43984353 12.5011542,4.48882579 C12.8092582,4.7656738 12.8345961,5.23987108 12.5577481,5.54797504 C12.2809001,5.856079 11.8067028,5.88141694 11.4985988,5.60456892 C11.4478431,5.5590803 11.4478431,5.5590803 11.4239633,5.53806331 C9.31689587,3.70180961 6.17579128,3.82445401 4.20655565,5.84311133 C2.26492712,7.83346869 2.26882992,11.0236902 4.19219914,13.6525433 C4.75752982,14.4252349 5.61875062,15.3950702 6.72867503,16.5073171 L6.92496516,16.7025674 C7.61987376,17.3846076 8.98811625,18.6076168 11.0387163,20.3789686 C11.5961369,20.8604803 12.4048121,20.8613109 12.9619706,20.3819815 L13.8481812,19.61636 C15.3466383,18.3157665 16.3924111,17.3738201 16.9874757,16.7894446 L17.0284227,16.7490981 C18.2563537,15.5348916 19.201764,14.4808719 19.8078009,13.6525433 C20.7561449,12.3563505 21.2582445,10.8809865 21.2501243,9.46749009 C21.2477447,9.05328337 21.5815966,8.71557347 21.9958033,8.71319393 C22.4100101,8.71081438 22.74772,9.04466628 22.7502213,9.45887301 C22.7601138,11.2020602 22.1520636,12.9887482 21.0183863,14.5382537 C20.3582418,15.4405364 19.3629946,16.5501183 18.0821727,17.816623 L18.0393872,17.8587812 C17.4157904,18.4711778 16.3515651,19.4297448 14.8301062,20.7503003 L13.9414132,21.5180667 C12.8197703,22.4830324 11.1778968,22.4813462 10.0581663,21.5140993 C7.98420205,19.722565 6.59885437,18.4842663 5.87072605,17.7695984 L5.66890457,17.5688624 C4.50745447,16.40499 3.59845698,15.3813525 2.98161375,14.5382537 C0.649914194,11.3512964 0.645014184,7.34593185 3.13283323,4.79567628 Z" id="路径" fill="#FFFFFF" fill-rule="nonzero"></path>
                <g id="1W+" transform="translate(14.704000, 0.408000)" fill="#FFFFFF" fill-rule="nonzero">
                    <path d="M0,2.128 L0,1.016 L1.792,0 L2.696,0 L2.696,5.864 L1.52,5.864 L1.52,1.28 L0,2.128 Z M8.64,0.008 L9.856,3.944 L10.976,0.008 L12.096,0.008 L10.272,5.864 L9.376,5.864 L8.144,2.04 L6.952,5.864 L6.064,5.864 L4.16,0.008 L5.36,0.008 L6.56,3.944 L7.712,0.008 L8.64,0.008 Z M13.808,0.928 L14.792,0.928 L14.792,2.48 L16.336,2.48 L16.336,3.456 L14.792,3.456 L14.792,5.008 L13.808,5.008 L13.808,3.456 L12.256,3.456 L12.256,2.48 L13.808,2.48 L13.808,0.928 Z" id="形状结合"></path>
                </g>
            </g>
        </g>
    </g>
</svg>