<?xml version="1.0" encoding="UTF-8"?>
<svg width="27px" height="24px" viewBox="0 0 27 24" version="1.1" xmlns="http://www.w3.org/2000/svg" xmlns:xlink="http://www.w3.org/1999/xlink">
    <title>Public/ic_public_pause备份 22@3x</title>
    <g id="2.6" stroke="none" stroke-width="1" fill="none" fill-rule="evenodd">
        <g id="切图资源" transform="translate(-649.000000, -624.000000)">
            <g id="Public/ic_public_pause备份-22" transform="translate(649.916667, 625.271667)">
                <g id="编组-3" transform="translate(12.786667, 0.000000)" stroke="#FFFFFF" stroke-linecap="round" stroke-linejoin="round" stroke-width="1.75">
                    <path d="M0.610866924,6.01685753 C0.610866924,6.01685753 0.610866924,6.01685753 0.610866924,6.01685753 C-0.327173162,5.19121085 -0.41828602,3.76146023 0.40736066,2.82342015 C0.836925793,2.33537929 1.4556709,2.05570399 2.10583248,2.05576655 L9.37560716,2.05576655 L9.37560716,2.05576655 L7.1078558,0" id="路径-10"></path>
                    <path d="M2.98647408,9.7035242 C2.98647408,9.7035242 2.98647408,9.7035242 2.98647408,9.7035242 C2.048434,8.87787752 1.95732114,7.4481269 2.78296782,6.51008681 C3.21253295,6.02204595 3.83127806,5.74237065 4.48143964,5.74243322 L11.7512143,5.74243322 L11.7512143,5.74243322 L9.48346296,3.68666667" id="路径-10" transform="translate(7.063411, 6.695095) scale(-1, -1) translate(-7.063411, -6.695095) "></path>
                </g>
                <path d="M0.875,4.56166667 L9.625,4.56166667 C10.1082492,4.56166667 10.5,4.95341751 10.5,5.43666667 C10.5,5.91991582 10.1082492,6.31166667 9.625,6.31166667 L0.875,6.31166667 C0.391750844,6.31166667 -1.13960724e-13,5.91991582 -1.13686838e-13,5.43666667 C-1.13857041e-13,4.95341751 0.391750844,4.56166667 0.875,4.56166667 Z" id="矩形" fill="#FFFFFF"></path>
                <path d="M0.875,12.7283333 L21.2916667,12.7283333 C21.7749158,12.7283333 22.1666667,13.1200842 22.1666667,13.6033333 C22.1666667,14.0865825 21.7749158,14.4783333 21.2916667,14.4783333 L0.875,14.4783333 C0.391750844,14.4783333 -1.13627657e-13,14.0865825 -1.13686838e-13,13.6033333 C-1.13746019e-13,13.1200842 0.391750844,12.7283333 0.875,12.7283333 Z" id="矩形备份" fill="#FFFFFF"></path>
                <path d="M0.875,20.895 L21.2916667,20.895 C21.7749158,20.895 22.1666667,21.2867508 22.1666667,21.77 C22.1666667,22.2532492 21.7749158,22.645 21.2916667,22.645 L0.875,22.645 C0.391750844,22.645 -1.13627657e-13,22.2532492 -1.13686838e-13,21.77 C-1.13746019e-13,21.2867508 0.391750844,20.895 0.875,20.895 Z" id="矩形备份-2" fill="#FFFFFF"></path>
            </g>
        </g>
    </g>
</svg>