<?xml version="1.0" encoding="UTF-8"?>
<svg width="72px" height="72px" viewBox="0 0 72 72" version="1.1" xmlns="http://www.w3.org/2000/svg" xmlns:xlink="http://www.w3.org/1999/xlink">
    <title>play/ic_play_72</title>
    <g id="play/ic_play_72" stroke="none" stroke-width="1" fill="none" fill-rule="evenodd">
        <rect id="矩形" fill="#D8D8D8" opacity="0" x="0" y="0" width="72" height="72"></rect>
        <path d="M15.0752943,16.59765 C29.0281588,3.20125191 42.6362671,1.30583349 51.8874528,4.1238467 C61.1386385,6.94185991 70.5419639,24.5893919 68.787165,44.5814772 C67.0323661,64.5735626 56.0735411,70.799822 37.2254398,68.5707172 C18.3773385,66.3416123 6.77020923,55.1868404 4.38955458,48.2469974 C2.00889994,41.3071543 1.1224298,29.9940481 15.0752943,16.59765 Z M30.5321204,24 C28.5812942,24 27,25.5448139 27,27.4502419 L27.0009023,46.5495004 C27.000931,47.1550707 27.1641481,47.7499666 27.4741511,48.2744038 C28.4495762,49.9245461 30.609891,50.489914 32.2993492,49.5371883 L49.2332902,39.9877352 C49.7702556,39.6849276 50.2161556,39.2494012 50.526174,38.7249295 C51.5015871,37.0747804 50.9227336,34.9647429 49.2332685,34.0120289 L32.2984251,24.4622234 C31.7614023,24.1593884 31.1522209,24 30.5321204,24 Z" id="形状结合" fill="#FFFFFF"></path>
    </g>
</svg>