<?xml version="1.0" encoding="UTF-8"?>
<svg width="24px" height="24px" viewBox="0 0 24 24" version="1.1" xmlns="http://www.w3.org/2000/svg" xmlns:xlink="http://www.w3.org/1999/xlink">
    <title>play/ic_previous_song_24</title>
    <g id="play/ic_previous_song_24" stroke="none" stroke-width="1" fill="none" fill-rule="evenodd">
        <rect id="矩形" fill="#D8D8D8" opacity="0" x="0" y="0" width="24" height="24"></rect>
        <path d="M16.0430322,13.6087805 L6.8704808,18.7507937 C5.95535762,19.2637999 4.78518712,18.959371 4.25683185,18.0708328 C4.08891354,17.7884436 4.00050427,17.468115 4.00048877,17.1420387 L4,6.85782258 C4,5.83182285 4.85653433,5 5.91323189,5 C6.24911967,5 6.57909292,5.08582454 6.86998028,5.24888954 L16.0430204,10.3910925 C16.9581474,10.9040923 17.271693,12.0402664 16.7433442,12.9288082 C16.5754176,13.211216 16.3338884,13.4457303 16.0430322,13.6087805 Z M19,5 C19.5522847,5 20,5.44771525 20,6 L20,18 C20,18.5522847 19.5522847,19 19,19 C18.4477153,19 18,18.5522847 18,18 L18,6 C18,5.44771525 18.4477153,5 19,5 Z" id="形状结合" fill="#FFFFFF" transform="translate(12.000000, 12.000000) scale(-1, 1) translate(-12.000000, -12.000000) "></path>
    </g>
</svg>