<?xml version="1.0" encoding="UTF-8"?>
<svg width="27px" height="24px" viewBox="0 0 27 24" version="1.1" xmlns="http://www.w3.org/2000/svg" xmlns:xlink="http://www.w3.org/1999/xlink">
    <title>Public/ic_public_pause备份 22@3x</title>
    <g id="2.6" stroke="none" stroke-width="1" fill="none" fill-rule="evenodd">
        <g id="切图资源" transform="translate(-649.000000, -624.000000)">
            <g id="Public/ic_public_pause备份-22" transform="translate(649.916667, 625.271667)">
                <g id="编组-3" transform="translate(12.786667, 0.000000)" stroke="#FFFFFF" stroke-linecap="round" stroke-linejoin="round" stroke-width="1.75">
                    <path d="M -0.261 9.637 C -0.28 9.598 1.836 8.097 1.836 8.097 L 5.704 5.332 L 10.193 2.362 L 8.207 0.581" id="路径-10"></path>
                    <path d="M -0.157 2.611 C -0.157 2.611 3.308 5.016 3.471 5.421 C 3.471 5.421 3.315 5.128 2.811 4.783 L 3.591 5.363 C 3.591 5.363 3.605 5.249 2.992 4.932 C 2.606 4.732 2.804 4.869 2.804 4.869 C 3.044 4.568 2.755 4.874 2.755 4.874 C 3.876 4.967 9.946 9.431 9.946 9.431 L 7.886 11.12" id="路径-1"></path>
                </g>
                <path d="M0.875,4.56166667 L9.625,4.56166667 C10.1082492,4.56166667 10.5,4.95341751 10.5,5.43666667 C10.5,5.91991582 10.1082492,6.31166667 9.625,6.31166667 L0.875,6.31166667 C0.391750844,6.31166667 -1.13960724e-13,5.91991582 -1.13686838e-13,5.43666667 C-1.13857041e-13,4.95341751 0.391750844,4.56166667 0.875,4.56166667 Z" id="矩形" fill="#FFFFFF"></path>
                <path d="M0.875,12.7283333 L21.2916667,12.7283333 C21.7749158,12.7283333 22.1666667,13.1200842 22.1666667,13.6033333 C22.1666667,14.0865825 21.7749158,14.4783333 21.2916667,14.4783333 L0.875,14.4783333 C0.391750844,14.4783333 -1.13627657e-13,14.0865825 -1.13686838e-13,13.6033333 C-1.13746019e-13,13.1200842 0.391750844,12.7283333 0.875,12.7283333 Z" id="矩形备份" fill="#FFFFFF"></path>
                <path d="M0.875,20.895 L21.2916667,20.895 C21.7749158,20.895 22.1666667,21.2867508 22.1666667,21.77 C22.1666667,22.2532492 21.7749158,22.645 21.2916667,22.645 L0.875,22.645 C0.391750844,22.645 -1.13627657e-13,22.2532492 -1.13686838e-13,21.77 C-1.13746019e-13,21.2867508 0.391750844,20.895 0.875,20.895 Z" id="矩形备份-2" fill="#FFFFFF"></path>
            </g>
        </g>
    </g>
</svg>