<?xml version="1.0" encoding="UTF-8"?>
<svg width="72px" height="72px" viewBox="0 0 72 72" version="1.1" xmlns="http://www.w3.org/2000/svg" xmlns:xlink="http://www.w3.org/1999/xlink">
    <title>play/ic_stop_72</title>
    <g id="play/ic_stop_72" stroke="none" stroke-width="1" fill="none" fill-rule="evenodd">
        <rect id="矩形" fill="#D8D8D8" opacity="0" x="0" y="0" width="72" height="72"></rect>
        <path d="M15.0752943,16.59765 C29.0281588,3.20125191 42.6362671,1.30583349 51.8874528,4.1238467 C61.1386385,6.94185991 70.5419639,24.5893919 68.787165,44.5814772 C67.0323661,64.5735626 56.0735411,70.799822 37.2254398,68.5707172 C18.3773385,66.3416123 6.77020923,55.1868404 4.38955458,48.2469974 C2.00889994,41.3071543 1.1224298,29.9940481 15.0752943,16.59765 Z M32,26 L29,26 C27.8954305,26 27,26.8954305 27,28 L27,47 C27,48.1045695 27.8954305,49 29,49 L32,49 C33.1045695,49 34,48.1045695 34,47 L34,28 C34,26.8954305 33.1045695,26 32,26 Z M45,26 L42,26 C40.8954305,26 40,26.8954305 40,28 L40,47 C40,48.1045695 40.8954305,49 42,49 L45,49 C46.1045695,49 47,48.1045695 47,47 L47,28 C47,26.8954305 46.1045695,26 45,26 Z" id="形状结合" fill="#FFFFFF"></path>
    </g>
</svg>