<?xml version="1.0" encoding="UTF-8"?>
<svg width="22px" height="26px" viewBox="0 0 22 26" version="1.1" xmlns="http://www.w3.org/2000/svg" xmlns:xlink="http://www.w3.org/1999/xlink">
    <title>play/ic_sequence备份 2@3x</title>
    <g id="2.6" stroke="none" stroke-width="1" fill="none" fill-rule="evenodd">
        <g id="切图资源" transform="translate(-896.000000, -624.000000)">
            <g id="play/ic_sequence备份-2" transform="translate(897.083333, 621.666667)">
                <g transform="translate(0.000000, 3.627666)" id="Group">
                    <path d="M7.43692824,22.4372227 C7.43692824,22.4372227 7.43692824,22.4372227 7.43692824,22.4372227 C7.42994802,22.345987 7.49825058,22.2663673 7.58948629,22.259387 C7.59793981,22.2587403 7.60643051,22.2587434 7.61488356,22.2593962 C8.62614433,22.3374861 9.39423134,22.376539 9.91914583,22.376539 C10.4383806,22.376539 11.2076327,22.3372514 12.2269019,22.2586763 L12.2269029,22.2586888 C12.314138,22.2519639 12.3903076,22.3172303 12.3970325,22.4044654 C12.3976403,22.4123492 12.3976569,22.4202674 12.3970824,22.4281537 C12.3970824,22.4281537 12.3970824,22.4281537 12.3970824,22.4281537 C12.3032506,23.7160244 11.2286149,24.7317631 9.91651172,24.7317631 C8.60778528,24.7317631 7.53513084,23.7207897 7.43692824,22.4372227 Z" id="Fill-1" fill="#FFFFFF"></path>
                    <path d="M11.7760417,2.78293269 L11.7760417,1.68987653 L11.7760417,1.68263221 C11.7760417,0.753409091 10.9438028,0 9.91666667,0 C8.88983845,0 8.05729167,0.753409091 8.05729167,1.68263221 C8.05729167,1.68513986 8.05759956,1.68736888 8.05759956,1.68987653 L8.05729167,2.7890625 C8.67792491,2.63469015 9.31416841,2.55750397 9.96602216,2.55750397 C10.6178759,2.55750397 11.2212157,2.63264688 11.7760417,2.78293269 Z" id="Stroke-3" stroke="#FFFFFF" stroke-width="1.45833333" stroke-linejoin="round"></path>
                    <path d="M17.2489606,14.7169078 L17.2489606,10.0526314 L17.2489606,10.0526314 C17.2489606,7.06493124 15.423278,4.33364721 12.6114491,3.32517774 C7.4315421,1.46782014 2.58467435,5.25614186 2.58467435,10.1766161 L2.58467435,14.7168161 C2.58467435,15.359481 2.3724151,15.9841531 1.98087579,16.4937757 L0.95158421,17.8334886 C0.55862623,18.3441267 0.65608639,19.0763617 1.16782681,19.4678789 C1.2865051,19.5586761 1.42152107,19.6258292 1.56570253,19.6650819 C3.46397425,20.1904026 6.24762897,20.453063 9.91666667,20.453063 C13.5857044,20.453063 16.3693591,20.1904026 18.2676308,19.6650819 C18.888795,19.4938526 19.2529186,18.8511392 19.0810896,18.230141 C19.0412379,18.0861148 18.9740871,17.9510859 18.8818602,17.8334886 L17.852659,16.493737 C17.4611828,15.984137 17.2489606,15.3595164 17.2489606,14.7169078 Z" id="Stroke-5" stroke="#FFFFFF" stroke-width="1.75" stroke-linejoin="round"></path>
                </g>
            </g>
        </g>
    </g>
</svg>