<?xml version="1.0" encoding="UTF-8"?>
<svg width="24px" height="24px" viewBox="0 0 24 24" version="1.1" xmlns="http://www.w3.org/2000/svg" xmlns:xlink="http://www.w3.org/1999/xlink">
    <title>play/ic_download_vip</title>
    <g id="play/ic_download_vip" stroke="none" stroke-width="1" fill="none" fill-rule="evenodd">
        <g id="编组">
            <rect id="矩形" opacity="0" x="0" y="0" width="24" height="24"></rect>
            <path d="M8.78766107,2.25 C9.20187464,2.25 9.53766107,2.58578644 9.53766107,3 C9.53766107,3.37969577 9.25550719,3.69349096 8.88943163,3.74315338 L8.78766107,3.75 L6,3.75 C4.80913601,3.75 3.83435508,4.67516159 3.75519081,5.84595119 L3.75,6 L3.75,18 C3.75,19.190864 4.67516159,20.1656449 5.84595119,20.2448092 L6,20.25 L18,20.25 C19.190864,20.25 20.1656449,19.3248384 20.2448092,18.1540488 L20.25,18 L20.25,8.5 C20.25,8.08578644 20.5857864,7.75 21,7.75 C21.3796958,7.75 21.693491,8.03215388 21.7431534,8.39822944 L21.75,8.5 L21.75,18 C21.75,20.0042592 20.1776389,21.6412737 18.1991586,21.744802 L18,21.75 L6,21.75 C3.99574083,21.75 2.35872626,20.1776389 2.25519801,18.1991586 L2.25,18 L2.25,6 C2.25,3.99574083 3.82236105,2.35872626 5.80084143,2.25519801 L6,2.25 L8.78766107,2.25 Z M12,5.48302181 C12.3796958,5.48302181 12.693491,5.76517569 12.7431534,6.13125125 L12.75,6.23302181 L12.75,14.113 L15.0175585,11.8457222 C15.2838251,11.5794556 15.7004887,11.5552496 15.9941002,11.773104 L16.0782187,11.8457222 C16.3444852,12.1119887 16.3686913,12.5286524 16.1508368,12.8222639 L16.0782187,12.9063824 L12.5303301,16.4542709 C12.2640635,16.7205375 11.8473998,16.7447436 11.5537883,16.5268891 L11.4696699,16.4542709 L7.92178133,12.9063824 C7.62888812,12.6134891 7.62888812,12.1386154 7.92178133,11.8457222 C8.1880479,11.5794556 8.60471158,11.5552496 8.89832307,11.773104 L8.98244151,11.8457222 L11.25,14.113 L11.25,6.23302181 C11.25,5.81880825 11.5857864,5.48302181 12,5.48302181 Z M13.32,0.416 L14.888,4.648 L16.392,0.416 L17.632,0.416 L15.352,6.272 L14.368,6.272 L12,0.416 L13.32,0.416 Z M19.0206308,0.416 L19.0206308,6.272 L17.8606308,6.272 L17.8606308,0.416 L19.0206308,0.416 Z M21.696,0.416 C22.16,0.416 22.5653333,0.496 22.912,0.656 C23.2586667,0.816 23.5266667,1.04133333 23.716,1.332 C23.9053333,1.62266667 24,1.96266667 24,2.352 C24,2.736 23.9053333,3.07333333 23.716,3.364 C23.5266667,3.65466667 23.2586667,3.87866667 22.912,4.036 C22.5653333,4.19333333 22.16,4.272 21.696,4.272 L21.696,4.272 L20.84,4.272 L20.84,6.272 L19.68,6.272 L19.68,0.416 Z M21.568,1.4 L20.84,1.4 L20.84,3.288 L21.568,3.288 C21.9306667,3.288 22.2213333,3.20933333 22.44,3.052 C22.6586667,2.89466667 22.768,2.66133333 22.768,2.352 C22.768,2.04266667 22.6586667,1.80666667 22.44,1.644 C22.2213333,1.48133333 21.9306667,1.4 21.568,1.4 L21.568,1.4 Z" id="形状结合" fill="#FFFFFF" fill-rule="nonzero"></path>
        </g>
    </g>
</svg>